<?xml version="1.0" encoding="UTF-8" standalone="no"?>
<!-- Created with Inkscape (http://www.inkscape.org/) -->

<svg
   xmlns:dc="http://purl.org/dc/elements/1.1/"
   xmlns:cc="http://creativecommons.org/ns#"
   xmlns:rdf="http://www.w3.org/1999/02/22-rdf-syntax-ns#"
   xmlns:svg="http://www.w3.org/2000/svg"
   xmlns="http://www.w3.org/2000/svg"
   xmlns:xlink="http://www.w3.org/1999/xlink"
   xmlns:sodipodi="http://sodipodi.sourceforge.net/DTD/sodipodi-0.dtd"
   xmlns:inkscape="http://www.inkscape.org/namespaces/inkscape"
   width="1190"
   height="892"
   id="svg2"
   version="1.1"
   inkscape:version="0.48.0 r9654"
   sodipodi:docname="the_points.svg">
  <defs
     id="defs4" />
  <sodipodi:namedview
     id="base"
     pagecolor="#ffffff"
     bordercolor="#666666"
     borderopacity="1.0"
     inkscape:pageopacity="0.0"
     inkscape:pageshadow="2"
     inkscape:zoom="1"
     inkscape:cx="595.32966"
     inkscape:cy="336.0657"
     inkscape:document-units="px"
     inkscape:current-layer="layer2"
     showgrid="false"
     inkscape:window-width="1292"
     inkscape:window-height="1004"
     inkscape:window-x="0"
     inkscape:window-y="25"
     inkscape:window-maximized="0" />
  <metadata
     id="metadata7">
    <rdf:RDF>
      <cc:Work
         rdf:about="">
        <dc:format>image/svg+xml</dc:format>
        <dc:type
           rdf:resource="http://purl.org/dc/dcmitype/StillImage" />
        <dc:title></dc:title>
      </cc:Work>
    </rdf:RDF>
  </metadata>
  <g
     inkscape:label="image"
     inkscape:groupmode="layer"
     id="layer1"
     transform="translate(0,-160.36218)"
     sodipodi:insensitive="true">
    <image
       y="160.36218"
       x="0"
       id="image3047"
       xlink:href="orleans_historique.png"
       height="892"
       width="1190" />
  </g>
  <g
     inkscape:groupmode="layer"
     id="layer2"
     inkscape:label="points">
    <path
       sodipodi:type="arc"
       style="fill:none;stroke:#000000;stroke-width:4;stroke-miterlimit:4;stroke-opacity:1;stroke-dasharray:none"
       id="path3070"
       sodipodi:cx="733.44653"
       sodipodi:cy="606.1521"
       sodipodi:rx="5.833631"
       sodipodi:ry="5.833631"
       d="m 739.28016,606.1521 a 5.833631,5.833631 0 1 1 -11.66726,0 5.833631,5.833631 0 1 1 11.66726,0 z"
       transform="translate(2.8284271,1.0606602)" />
    <path
       transform="translate(-49.497475,-32.526912)"
       d="m 739.28016,606.1521 a 5.833631,5.833631 0 1 1 -11.66726,0 5.833631,5.833631 0 1 1 11.66726,0 z"
       sodipodi:ry="5.833631"
       sodipodi:rx="5.833631"
       sodipodi:cy="606.1521"
       sodipodi:cx="733.44653"
       id="path3072"
       style="fill:none;stroke:#000000;stroke-width:4;stroke-miterlimit:4;stroke-opacity:1;stroke-dasharray:none"
       sodipodi:type="arc" />
    <path
       sodipodi:type="arc"
       style="fill:none;stroke:#000000;stroke-width:4;stroke-miterlimit:4;stroke-opacity:1;stroke-dasharray:none"
       id="path3074"
       sodipodi:cx="733.44653"
       sodipodi:cy="606.1521"
       sodipodi:rx="5.833631"
       sodipodi:ry="5.833631"
       d="m 739.28016,606.1521 a 5.833631,5.833631 0 1 1 -11.66726,0 5.833631,5.833631 0 1 1 11.66726,0 z"
       transform="translate(-60.811184,7.7781746)" />
    <path
       transform="translate(-131.16831,7.0710678)"
       d="m 739.28016,606.1521 a 5.833631,5.833631 0 1 1 -11.66726,0 5.833631,5.833631 0 1 1 11.66726,0 z"
       sodipodi:ry="5.833631"
       sodipodi:rx="5.833631"
       sodipodi:cy="606.1521"
       sodipodi:cx="733.44653"
       id="path3076"
       style="fill:none;stroke:#000000;stroke-width:4;stroke-miterlimit:4;stroke-opacity:1;stroke-dasharray:none"
       sodipodi:type="arc" />
    <path
       sodipodi:type="arc"
       style="fill:none;stroke:#000000;stroke-width:4;stroke-miterlimit:4;stroke-opacity:1;stroke-dasharray:none"
       id="path3078"
       sodipodi:cx="733.44653"
       sodipodi:cy="606.1521"
       sodipodi:rx="5.833631"
       sodipodi:ry="5.833631"
       d="m 739.28016,606.1521 a 5.833631,5.833631 0 1 1 -11.66726,0 5.833631,5.833631 0 1 1 11.66726,0 z"
       transform="translate(-288.14602,-73.892659)" />
    <path
       transform="translate(-264.45794,-205.76807)"
       d="m 739.28016,606.1521 a 5.833631,5.833631 0 1 1 -11.66726,0 5.833631,5.833631 0 1 1 11.66726,0 z"
       sodipodi:ry="5.833631"
       sodipodi:rx="5.833631"
       sodipodi:cy="606.1521"
       sodipodi:cx="733.44653"
       id="path3080"
       style="fill:none;stroke:#000000;stroke-width:4;stroke-miterlimit:4;stroke-opacity:1;stroke-dasharray:none"
       sodipodi:type="arc" />
    <path
       sodipodi:type="arc"
       style="fill:none;stroke:#000000;stroke-width:4;stroke-miterlimit:4;stroke-opacity:1;stroke-dasharray:none"
       id="path3082"
       sodipodi:cx="733.44653"
       sodipodi:cy="606.1521"
       sodipodi:rx="5.833631"
       sodipodi:ry="5.833631"
       d="m 739.28016,606.1521 a 5.833631,5.833631 0 1 1 -11.66726,0 5.833631,5.833631 0 1 1 11.66726,0 z"
       transform="translate(-227.95794,-336.26807)" />
    <path
       transform="translate(-216.95794,-383.76807)"
       d="m 739.28016,606.1521 a 5.833631,5.833631 0 1 1 -11.66726,0 5.833631,5.833631 0 1 1 11.66726,0 z"
       sodipodi:ry="5.833631"
       sodipodi:rx="5.833631"
       sodipodi:cy="606.1521"
       sodipodi:cx="733.44653"
       id="path3084"
       style="fill:none;stroke:#000000;stroke-width:4;stroke-miterlimit:4;stroke-opacity:1;stroke-dasharray:none"
       sodipodi:type="arc" />
    <path
       transform="translate(160.82843,66.56066)"
       d="m 739.28016,606.1521 a 5.833631,5.833631 0 1 1 -11.66726,0 5.833631,5.833631 0 1 1 11.66726,0 z"
       sodipodi:ry="5.833631"
       sodipodi:rx="5.833631"
       sodipodi:cy="606.1521"
       sodipodi:cx="733.44653"
       id="path3086"
       style="fill:none;stroke:#000000;stroke-width:4;stroke-miterlimit:4;stroke-opacity:1;stroke-dasharray:none"
       sodipodi:type="arc" />
    <path
       sodipodi:type="arc"
       style="fill:none;stroke:#000000;stroke-width:4;stroke-miterlimit:4;stroke-opacity:1;stroke-dasharray:none"
       id="path3088"
       sodipodi:cx="733.44653"
       sodipodi:cy="606.1521"
       sodipodi:rx="5.833631"
       sodipodi:ry="5.833631"
       d="m 739.28016,606.1521 a 5.833631,5.833631 0 1 1 -11.66726,0 5.833631,5.833631 0 1 1 11.66726,0 z"
       transform="translate(316.82843,-62.43934)" />
    <path
       transform="translate(249.82843,158.56066)"
       d="m 739.28016,606.1521 a 5.833631,5.833631 0 1 1 -11.66726,0 5.833631,5.833631 0 1 1 11.66726,0 z"
       sodipodi:ry="5.833631"
       sodipodi:rx="5.833631"
       sodipodi:cy="606.1521"
       sodipodi:cx="733.44653"
       id="path3090"
       style="fill:none;stroke:#000000;stroke-width:4;stroke-miterlimit:4;stroke-opacity:1;stroke-dasharray:none"
       sodipodi:type="arc" />
    <path
       sodipodi:type="arc"
       style="fill:none;stroke:#000000;stroke-width:4;stroke-miterlimit:4;stroke-opacity:1;stroke-dasharray:none"
       id="path3092"
       sodipodi:cx="733.44653"
       sodipodi:cy="606.1521"
       sodipodi:rx="5.833631"
       sodipodi:ry="5.833631"
       d="m 739.28016,606.1521 a 5.833631,5.833631 0 1 1 -11.66726,0 5.833631,5.833631 0 1 1 11.66726,0 z"
       transform="translate(231.32843,-112.43934)" />
    <path
       transform="translate(335.32843,-119.43934)"
       d="m 739.28016,606.1521 a 5.833631,5.833631 0 1 1 -11.66726,0 5.833631,5.833631 0 1 1 11.66726,0 z"
       sodipodi:ry="5.833631"
       sodipodi:rx="5.833631"
       sodipodi:cy="606.1521"
       sodipodi:cx="733.44653"
       id="path3094"
       style="fill:none;stroke:#000000;stroke-width:4;stroke-miterlimit:4;stroke-opacity:1;stroke-dasharray:none"
       sodipodi:type="arc" />
    <path
       sodipodi:type="arc"
       style="fill:none;stroke:#000000;stroke-width:4;stroke-miterlimit:4;stroke-opacity:1;stroke-dasharray:none"
       id="path3096"
       sodipodi:cx="733.44653"
       sodipodi:cy="606.1521"
       sodipodi:rx="5.833631"
       sodipodi:ry="5.833631"
       d="m 739.28016,606.1521 a 5.833631,5.833631 0 1 1 -11.66726,0 5.833631,5.833631 0 1 1 11.66726,0 z"
       transform="translate(-353.45794,-350.76807)" />
    <path
       transform="translate(-410.45794,-391.76807)"
       d="m 739.28016,606.1521 a 5.833631,5.833631 0 1 1 -11.66726,0 5.833631,5.833631 0 1 1 11.66726,0 z"
       sodipodi:ry="5.833631"
       sodipodi:rx="5.833631"
       sodipodi:cy="606.1521"
       sodipodi:cx="733.44653"
       id="path3098"
       style="fill:none;stroke:#000000;stroke-width:4;stroke-miterlimit:4;stroke-opacity:1;stroke-dasharray:none"
       sodipodi:type="arc" />
    <path
       sodipodi:type="arc"
       style="fill:none;stroke:#000000;stroke-width:4;stroke-miterlimit:4;stroke-opacity:1;stroke-dasharray:none"
       id="path3100"
       sodipodi:cx="733.44653"
       sodipodi:cy="606.1521"
       sodipodi:rx="5.833631"
       sodipodi:ry="5.833631"
       d="m 739.28016,606.1521 a 5.833631,5.833631 0 1 1 -11.66726,0 5.833631,5.833631 0 1 1 11.66726,0 z"
       transform="translate(-464.45794,-402.76807)" />
    <path
       sodipodi:type="arc"
       style="fill:none;stroke:#000000;stroke-width:4;stroke-miterlimit:4;stroke-opacity:1;stroke-dasharray:none"
       id="path3102"
       sodipodi:cx="733.44653"
       sodipodi:cy="606.1521"
       sodipodi:rx="5.833631"
       sodipodi:ry="5.833631"
       d="m 739.28016,606.1521 a 5.833631,5.833631 0 1 1 -11.66726,0 5.833631,5.833631 0 1 1 11.66726,0 z"
       transform="translate(348.94827,105.13068)" />
    <path
       transform="translate(350.00893,226.75305)"
       d="m 739.28016,606.1521 a 5.833631,5.833631 0 1 1 -11.66726,0 5.833631,5.833631 0 1 1 11.66726,0 z"
       sodipodi:ry="5.833631"
       sodipodi:rx="5.833631"
       sodipodi:cy="606.1521"
       sodipodi:cx="733.44653"
       id="path3104"
       style="fill:none;stroke:#000000;stroke-width:4;stroke-miterlimit:4;stroke-opacity:1;stroke-dasharray:none"
       sodipodi:type="arc" />
    <path
       sodipodi:type="arc"
       style="fill:none;stroke:#000000;stroke-width:4;stroke-miterlimit:4;stroke-opacity:1;stroke-dasharray:none"
       id="path3106"
       sodipodi:cx="733.44653"
       sodipodi:cy="606.1521"
       sodipodi:rx="5.833631"
       sodipodi:ry="5.833631"
       d="m 739.28016,606.1521 a 5.833631,5.833631 0 1 1 -11.66726,0 5.833631,5.833631 0 1 1 11.66726,0 z"
       transform="translate(61.384473,190.73402)" />
  </g>
</svg>
